<svg width="176" height="37" viewBox="0 0 176 37" fill="none" xmlns="http://www.w3.org/2000/svg">
  <path d="M47.1116 0.777832V29.7762H24.5531V23.3309H40.6663V7.22313H8.44531V0.777832H47.1116Z" fill="white"/>
  <path d="M24.5531 29.7767V36.2219H2V7.22363H8.44529V29.7767H24.5531Z" fill="white"/>
  <path d="M60.0079 6.97266C61.3275 6.97266 62.4563 7.15805 63.3996 7.5234C64.343 7.88874 65.0682 8.45584 65.5753 9.21924C66.0824 9.98264 66.3333 10.926 66.3333 12.0602C66.3333 13.1944 66.077 14.1377 65.5753 14.9011C65.0682 15.6645 64.343 16.2316 63.3996 16.597C62.4563 16.9623 61.3275 17.1477 60.0079 17.1477C58.6884 17.1477 57.5596 16.9623 56.6163 16.597C55.6729 16.2316 54.9477 15.6645 54.4406 14.9011C53.9334 14.1377 53.6826 13.1944 53.6826 12.0602C53.6826 10.926 53.9389 9.98264 54.4406 9.21924C54.9477 8.45584 55.6729 7.89419 56.6163 7.5234C57.5596 7.15805 58.6884 6.97266 60.0079 6.97266ZM60.0079 15.0865C61.164 15.0865 62.0419 14.8302 62.6471 14.3122C63.2524 13.7942 63.5469 13.0472 63.5469 12.0602C63.5469 11.0732 63.247 10.3207 62.6471 9.80815C62.0473 9.29558 61.1694 9.03384 60.0079 9.03384C58.8465 9.03384 57.974 9.29013 57.3688 9.80815C56.7635 10.3262 56.469 11.0732 56.469 12.0602C56.469 13.0472 56.7689 13.7996 57.3688 14.3122C57.9686 14.8248 58.8465 15.0865 60.0079 15.0865Z" fill="white"/>
  <path d="M81.3122 16.8585H78.7822V9.6334H78.7167L75.5704 16.8585H73.5255L70.3356 9.5407H70.2538V16.8585H67.8438V7.25049H71.8679L74.518 13.5868H74.5998L77.2117 7.25049H81.3177V16.8585H81.3122Z" fill="white"/>
  <path d="M94.3608 7.25049V16.8585H91.4544L85.6416 10.266H85.5762V16.8585H83.166V7.25049H86.1378L91.8688 13.7613H91.9342V7.25049H94.3553H94.3608Z" fill="white"/>
  <path d="M96.2041 16.8585V7.25049H98.7342V16.8585H96.2041Z" fill="white"/>
  <path d="M109.378 10.8986C109.34 10.5769 109.214 10.2716 108.985 9.98256C108.762 9.69356 108.429 9.46453 107.987 9.29004C107.546 9.11555 107.017 9.02831 106.401 9.02831C105.315 9.02831 104.481 9.29004 103.892 9.80807C103.303 10.3261 103.009 11.0786 103.009 12.0546C103.009 13.0307 103.303 13.7832 103.892 14.3012C104.481 14.8193 105.315 15.081 106.401 15.081C107.333 15.081 108.053 14.8901 108.554 14.503C109.056 14.1158 109.329 13.6196 109.378 13.0089H112.421C112.404 13.8868 112.153 14.6393 111.679 15.2555C111.205 15.8717 110.518 16.3406 109.629 16.6623C108.734 16.9786 107.66 17.1422 106.406 17.1422C105.152 17.1422 104.034 16.9568 103.118 16.586C102.196 16.2152 101.488 15.6481 100.986 14.8901C100.484 14.1322 100.233 13.1888 100.233 12.0601C100.233 10.9314 100.484 9.98801 100.986 9.23006C101.488 8.47211 102.202 7.90502 103.118 7.53422C104.034 7.16343 105.136 6.97803 106.406 6.97803C107.677 6.97803 108.718 7.13616 109.601 7.44697C110.485 7.76324 111.161 8.21038 111.635 8.79929C112.104 9.3882 112.361 10.0916 112.393 10.9041H109.378V10.8986Z" fill="white"/>
  <path d="M119.892 6.97266C121.211 6.97266 122.34 7.15805 123.283 7.5234C124.227 7.88874 124.952 8.45584 125.459 9.21924C125.966 9.98264 126.217 10.926 126.217 12.0602C126.217 13.1944 125.961 14.1377 125.459 14.9011C124.952 15.6645 124.227 16.2316 123.283 16.597C122.34 16.9623 121.211 17.1477 119.892 17.1477C118.572 17.1477 117.443 16.9623 116.5 16.597C115.557 16.2316 114.831 15.6645 114.324 14.9011C113.817 14.1377 113.566 13.1944 113.566 12.0602C113.566 10.926 113.823 9.98264 114.324 9.21924C114.831 8.45584 115.557 7.89419 116.5 7.5234C117.443 7.1526 118.572 6.97266 119.892 6.97266ZM119.892 15.0865C121.048 15.0865 121.926 14.8302 122.531 14.3122C123.136 13.7942 123.431 13.0472 123.431 12.0602C123.431 11.0732 123.131 10.3207 122.531 9.80815C121.931 9.29558 121.053 9.03384 119.892 9.03384C118.73 9.03384 117.858 9.29013 117.253 9.80815C116.653 10.3262 116.353 11.0732 116.353 12.0602C116.353 13.0472 116.653 13.7996 117.253 14.3122C117.852 14.8248 118.73 15.0865 119.892 15.0865Z" fill="white"/>
  <path d="M141.19 16.8585H138.66V9.6334H138.595L135.448 16.8585H133.404L130.214 9.5407H130.132V16.8585H127.722V7.25049H131.746L134.396 13.5868H134.478L137.09 7.25049H141.196V16.8585H141.19Z" fill="white"/>
  <path d="M61.4366 20.152C62.2873 20.152 62.9798 20.261 63.5142 20.4792C64.0486 20.6973 64.4357 21.0353 64.6757 21.4934C64.9156 21.9514 65.041 22.5349 65.041 23.2438C65.041 23.9526 64.9156 24.547 64.6702 24.9996C64.4248 25.4522 64.0377 25.7902 63.5087 26.0138C62.9798 26.2374 62.2873 26.3519 61.4366 26.3519H56.5672V29.7545H54.0371V20.1465H61.4366V20.152ZM60.8859 24.5088C61.3712 24.5088 61.7202 24.4107 61.9438 24.2198C62.1673 24.029 62.2709 23.7236 62.2709 23.3092C62.2709 22.8948 62.1619 22.5949 61.9438 22.3986C61.7257 22.2077 61.3712 22.1096 60.8859 22.1096H56.5672V24.5034H60.8859V24.5088Z" fill="white"/>
  <path d="M78.0021 29.7545H75.0575L73.0127 26.3519H69.0321V29.7545H66.502V20.1465H74.185C75.4501 20.1465 76.3662 20.3919 76.9278 20.8881C77.4949 21.3789 77.773 22.1477 77.773 23.1892C77.773 24.0126 77.5822 24.6342 77.195 25.0541C76.8079 25.474 76.2844 25.7466 75.6192 25.8829V25.9756L78.0021 29.7545ZM73.6943 24.427C74.1414 24.427 74.4686 24.3398 74.6758 24.1598C74.883 23.9799 74.9866 23.6963 74.9866 23.3146C74.9866 22.9329 74.883 22.6603 74.6758 22.4749C74.4686 22.2895 74.1414 22.1968 73.6943 22.1968H69.0266V24.4325H73.6943V24.427Z" fill="white"/>
  <path d="M85.2384 19.8687C86.558 19.8687 87.6867 20.0541 88.6301 20.4194C89.5734 20.7847 90.2987 21.3518 90.8058 22.1152C91.3129 22.8786 91.5637 23.822 91.5637 24.9562C91.5637 26.0904 91.3075 27.0337 90.8058 27.7971C90.2987 28.5605 89.5734 29.1276 88.6301 29.493C87.6867 29.8583 86.558 30.0437 85.2384 30.0437C83.9188 30.0437 82.7901 29.8583 81.8467 29.493C80.9034 29.1276 80.1782 28.5605 79.671 27.7971C79.1639 27.0337 78.9131 26.0904 78.9131 24.9562C78.9131 23.822 79.1639 22.8786 79.671 22.1152C80.1782 21.3518 80.9034 20.7902 81.8467 20.4194C82.7901 20.0541 83.9188 19.8687 85.2384 19.8687ZM85.2384 27.9825C86.3944 27.9825 87.2723 27.7262 87.8776 27.2082C88.4774 26.6902 88.7773 25.9432 88.7773 24.9562C88.7773 23.9692 88.4774 23.2167 87.8776 22.7041C87.2778 22.1861 86.3999 21.9298 85.2384 21.9298C84.077 21.9298 83.2045 22.1861 82.5992 22.7041C81.9994 23.2222 81.6995 23.9692 81.6995 24.9562C81.6995 25.9432 81.9994 26.6956 82.5992 27.2082C83.199 27.7262 84.077 27.9825 85.2384 27.9825Z" fill="white"/>
  <path d="M99.285 20.1523C100.436 20.1523 101.395 20.3159 102.181 20.6431C102.96 20.9702 103.549 21.4883 103.953 22.1917C104.351 22.8951 104.553 23.8166 104.553 24.9563C104.553 26.0959 104.351 27.0175 103.953 27.7209C103.555 28.4243 102.966 28.9423 102.191 29.2695C101.417 29.5967 100.446 29.7603 99.2905 29.7603H93.1396V20.1523H99.2905H99.285ZM95.6643 22.1535V27.7536H98.7343C99.7322 27.7536 100.485 27.53 100.997 27.0883C101.51 26.6467 101.766 25.9323 101.766 24.9563C101.766 23.9802 101.51 23.2659 100.997 22.8242C100.485 22.3825 99.7322 22.159 98.7343 22.159H95.6643V22.1535Z" fill="white"/>
  <path d="M117.263 20.1523V25.8015C117.263 26.8321 117.034 27.6609 116.581 28.288C116.129 28.9151 115.491 29.3622 114.673 29.6348C113.855 29.9075 112.857 30.0383 111.69 30.0383C110.523 30.0383 109.52 29.902 108.702 29.6348C107.884 29.3676 107.251 28.9151 106.799 28.288C106.346 27.6609 106.117 26.8321 106.117 25.8015V20.1523H108.647V25.7633C108.647 26.554 108.915 27.1211 109.443 27.4646C109.972 27.8081 110.719 27.9826 111.69 27.9826C112.661 27.9826 113.408 27.8081 113.937 27.4646C114.466 27.1211 114.733 26.554 114.733 25.7633V20.1523H117.263Z" fill="white"/>
  <path d="M127.973 23.7946C127.934 23.4729 127.809 23.1676 127.58 22.8786C127.356 22.5896 127.024 22.3605 126.582 22.186C126.14 22.0115 125.611 21.9243 124.995 21.9243C123.91 21.9243 123.076 22.186 122.487 22.7041C121.898 23.2221 121.604 23.9746 121.604 24.9506C121.604 25.9267 121.898 26.6792 122.487 27.1972C123.076 27.7153 123.91 27.977 124.995 27.977C125.928 27.977 126.648 27.7861 127.149 27.399C127.651 27.0118 127.924 26.5156 127.973 25.9049H131.015C130.999 26.7828 130.748 27.5353 130.274 28.1515C129.799 28.7677 129.112 29.2366 128.223 29.5583C127.329 29.8746 126.255 30.0382 125.001 30.0382C123.747 30.0382 122.629 29.8528 121.713 29.482C120.791 29.1112 120.082 28.5441 119.581 27.7861C119.079 27.0282 118.828 26.0848 118.828 24.9561C118.828 23.8274 119.079 22.884 119.581 22.1261C120.082 21.3681 120.797 20.801 121.713 20.4302C122.629 20.0594 123.73 19.874 125.001 19.874C126.271 19.874 127.313 20.0322 128.196 20.343C129.08 20.6592 129.756 21.1064 130.23 21.6953C130.699 22.2842 130.955 22.9876 130.988 23.8001H127.973V23.7946Z" fill="white"/>
  <path d="M142.968 22.2353H138.66V29.7548H136.13V22.2353H131.839V20.1523H142.968V22.2353Z" fill="white"/>
  <path d="M144.429 29.7545V20.1465H146.959V29.7545H144.429Z" fill="white"/>
  <path d="M154.877 19.8687C156.197 19.8687 157.325 20.0541 158.269 20.4194C159.212 20.7847 159.937 21.3518 160.444 22.1152C160.952 22.8786 161.202 23.822 161.202 24.9562C161.202 26.0904 160.946 27.0337 160.444 27.7971C159.937 28.5605 159.212 29.1276 158.269 29.493C157.325 29.8583 156.197 30.0437 154.877 30.0437C153.557 30.0437 152.429 29.8583 151.485 29.493C150.542 29.1276 149.817 28.5605 149.31 27.7971C148.803 27.0337 148.552 26.0904 148.552 24.9562C148.552 23.822 148.803 22.8786 149.31 22.1152C149.817 21.3518 150.542 20.7902 151.485 20.4194C152.429 20.0541 153.557 19.8687 154.877 19.8687ZM154.877 27.9825C156.033 27.9825 156.911 27.7262 157.516 27.2082C158.116 26.6902 158.416 25.9432 158.416 24.9562C158.416 23.9692 158.116 23.2167 157.516 22.7041C156.916 22.1861 156.039 21.9298 154.877 21.9298C153.716 21.9298 152.843 22.1861 152.238 22.7041C151.638 23.2222 151.338 23.9692 151.338 24.9562C151.338 25.9432 151.638 26.6956 152.238 27.2082C152.838 27.7262 153.716 27.9825 154.877 27.9825Z" fill="white"/>
  <path d="M174 20.1523V29.7603H171.094L165.281 23.1677H165.216V29.7603H162.806V20.1523H165.777L171.508 26.663H171.574V20.1523H173.995H174Z" fill="white"/>
</svg>
